<svg width="135" height="44" viewBox="0 0 135 44" fill="none" xmlns="http://www.w3.org/2000/svg">
<path d="M26.6575 6.49591C26.6575 7.67474 27.6129 8.63037 28.7914 8.63037H33.3793C34.5579 8.63037 35.5133 9.586 35.5133 10.7648V15.4429C35.5133 16.6217 34.5579 17.5774 33.3793 17.5774L28.7024 17.5774C27.5239 17.5774 26.5685 16.6217 26.5685 15.4429L26.5685 11.0814C26.5685 9.90262 25.6131 8.94699 24.4346 8.94699L11.0787 8.94699C9.90012 8.94699 8.94474 9.90262 8.94474 11.0814L8.94474 32.9186C8.94474 34.0974 9.90012 35.053 11.0787 35.053H24.4346C25.6131 35.053 26.5685 34.0974 26.5685 32.9186V28.2761C26.5685 27.0973 27.5239 26.1417 28.7024 26.1417L33.3793 26.1417C34.5579 26.1417 35.5133 27.0973 35.5133 28.2761V32.9542C35.5133 34.133 34.5579 35.0886 33.3793 35.0886H28.7912C27.6127 35.0886 26.6573 36.0443 26.6573 37.2231V41.8655C26.6573 43.0444 25.7019 44 24.5234 44H10.9895C9.81093 44 8.85555 43.0444 8.85555 41.8655V37.2231C8.85555 36.0443 7.90016 35.0886 6.72163 35.0886H2.13392C0.955387 35.0886 -5.15152e-08 34.133 0 32.9542L9.69684e-07 10.7648C1.0212e-06 9.586 0.955388 8.63037 2.13392 8.63037H6.72184C7.90037 8.63037 8.85575 7.67474 8.85575 6.49591L8.85576 2.13446C8.85576 0.955628 9.81114 -5.15282e-08 10.9897 0L24.5236 5.91735e-07C25.7021 6.43263e-07 26.6575 0.955629 26.6575 2.13446V6.49591Z" fill="#0D0D0D"/>
<path fill-rule="evenodd" clip-rule="evenodd" d="M94.1683 31.8034C95.5249 31.8034 96.5446 32.2816 97.2275 33.2378C97.9103 34.1849 98.2517 35.6056 98.2517 37.4998C98.2517 39.3941 97.9103 40.8194 97.2275 41.7756C96.5446 42.7227 95.5249 43.1963 94.1683 43.1963C92.8208 43.1963 91.801 42.7228 91.109 41.7756C90.4262 40.8194 90.0848 39.3941 90.0848 37.4998C90.0848 35.6056 90.4262 34.1849 91.109 33.2378C91.801 32.2816 92.8208 31.8034 94.1683 31.8034ZM94.1683 33.47C93.3853 33.47 92.8071 33.7978 92.4338 34.4536C92.0605 35.1093 91.8738 36.1247 91.8738 37.4998C91.8738 38.875 92.0605 39.8904 92.4338 40.5461C92.8071 41.2018 93.3853 41.5297 94.1683 41.5297C94.9513 41.5297 95.5294 41.2018 95.9027 40.5461C96.276 39.8904 96.4627 38.875 96.4627 37.4998C96.4627 36.1247 96.276 35.1093 95.9027 34.4536C95.5294 33.7979 94.9513 33.47 94.1683 33.47Z" fill="#0D0D0D"/>
<path d="M58.9837 41.6618C58.9959 41.7049 59.0352 41.7346 59.0799 41.7346C59.1359 41.7346 59.181 41.6886 59.1798 41.6326L59.1136 38.2785V32.2991C59.1136 32.1536 59.2316 32.0356 59.3771 32.0356H60.448C60.5935 32.0356 60.7115 32.1536 60.7115 32.2991L60.7114 42.7005C60.7114 42.8461 60.5935 42.9641 60.448 42.9641H57.9607C57.8428 42.9641 57.7393 42.8858 57.7072 42.7723L55.037 33.3378C55.0249 33.2947 54.9856 33.265 54.9409 33.265C54.8849 33.265 54.8398 33.311 54.8409 33.367L54.9072 36.7212V42.7005C54.9072 42.8461 54.7892 42.9641 54.6437 42.9641H53.5728C53.4273 42.9641 53.3093 42.8461 53.3093 42.7005V32.2991C53.3093 32.1536 53.4273 32.0356 53.5728 32.0356H56.0601C56.1779 32.0356 56.2815 32.1139 56.3136 32.2274L58.9837 41.6618Z" fill="#0D0D0D"/>
<path d="M69.9737 33.3977C69.9737 33.5433 69.8557 33.6613 69.7102 33.6613H65.3479C65.2024 33.6613 65.0844 33.7792 65.0844 33.9248V36.444C65.0844 36.5896 65.2024 36.7075 65.3479 36.7075H69.0274C69.1729 36.7075 69.2909 36.8255 69.2909 36.9711V37.9876C69.2909 38.1332 69.1729 38.2512 69.0274 38.2512H65.3479C65.2024 38.2512 65.0844 38.3692 65.0844 38.5147V41.0749C65.0844 41.2204 65.2024 41.3384 65.3479 41.3384H69.5736C69.7191 41.3384 69.8371 41.4564 69.8371 41.602V42.7005C69.8371 42.8461 69.7191 42.9641 69.5736 42.9641H63.5589C63.4133 42.9641 63.2954 42.8461 63.2954 42.7005V32.2991C63.2954 32.1536 63.4133 32.0356 63.5589 32.0356H69.7102C69.8557 32.0356 69.9737 32.1536 69.9737 32.2991V33.3977Z" fill="#0D0D0D"/>
<path d="M79.6729 33.466C79.6729 33.6115 79.5549 33.7295 79.4094 33.7295H76.7406C76.5951 33.7295 76.4771 33.8475 76.4771 33.9931V42.7005C76.4771 42.8461 76.3592 42.9641 76.2136 42.9641H74.9652C74.8197 42.9641 74.7017 42.8461 74.7017 42.7005V33.9931C74.7017 33.8475 74.5838 33.7295 74.4383 33.7295H71.7694C71.6239 33.7295 71.506 33.6115 71.506 33.466V32.2991C71.506 32.1536 71.6239 32.0356 71.7694 32.0356H79.4094C79.5549 32.0356 79.6729 32.1536 79.6729 32.2991V33.466Z" fill="#0D0D0D"/>
<path d="M82.7348 38.3877L82.9069 41.4864C82.9099 41.5413 82.9553 41.5843 83.0103 41.5843C83.0633 41.5843 83.1077 41.5443 83.1133 41.4915L83.8025 34.9354C83.8166 34.8012 83.9297 34.6994 84.0646 34.6994H85.828C85.9637 34.6994 86.0771 34.8024 86.0903 34.9374L86.7273 41.4909C86.7324 41.5439 86.777 41.5843 86.8302 41.5843C86.8849 41.5843 86.9301 41.5417 86.9334 41.487L87.1188 38.3877L87.8027 32.2699C87.8176 32.1365 87.9303 32.0356 88.0645 32.0356H89.0907C89.248 32.0356 89.3703 32.1726 89.3525 32.3289L88.1696 42.7303C88.1544 42.8635 88.0418 42.9641 87.9078 42.9641H85.9366C85.8014 42.9641 85.6881 42.8616 85.6745 42.727L84.9971 36.0038C84.9921 35.9535 84.9497 35.9152 84.8991 35.9152C84.8488 35.9152 84.8065 35.9531 84.8011 36.0031L84.0714 42.729C84.0568 42.8627 83.9439 42.9641 83.8094 42.9641H81.8502C81.7162 42.9641 81.6035 42.8635 81.5884 42.7303L80.4055 32.3289C80.3877 32.1726 80.51 32.0356 80.6673 32.0356H81.8022C81.9366 32.0356 82.0494 32.1368 82.0641 32.2704L82.7348 38.3877Z" fill="#0D0D0D"/>
<path fill-rule="evenodd" clip-rule="evenodd" d="M103.963 32.0356C104.673 32.0356 105.292 32.1677 105.82 32.4318C106.349 32.6959 106.758 33.0693 107.05 33.5519C107.341 34.0346 107.487 34.6084 107.487 35.2732C107.487 35.8833 107.336 36.4207 107.036 36.8851C106.745 37.3496 106.335 37.7138 105.807 37.9779C105.636 38.0603 105.457 38.1293 105.268 38.1851C105.092 38.2371 105.002 38.4415 105.097 38.5982L107.515 42.5633C107.622 42.7389 107.496 42.9641 107.29 42.9641H105.889C105.796 42.9641 105.709 42.9146 105.662 42.8341L103.11 38.4904C103.063 38.4099 102.976 38.3604 102.883 38.3604H102.151C102.005 38.3604 101.887 38.4784 101.887 38.6239V42.7005C101.887 42.8461 101.769 42.9641 101.624 42.9641H100.362C100.216 42.9641 100.098 42.8461 100.098 42.7005V32.2991C100.098 32.1536 100.216 32.0356 100.362 32.0356H103.963ZM101.887 36.5669C101.887 36.7124 102.005 36.8304 102.151 36.8304H103.963C104.491 36.8304 104.91 36.6893 105.22 36.407C105.538 36.1247 105.698 35.7467 105.698 35.2732C105.698 34.7996 105.538 34.4216 105.22 34.1393C104.91 33.857 104.491 33.7159 103.963 33.7159H102.151C102.005 33.7159 101.887 33.8339 101.887 33.9794V36.5669Z" fill="#0D0D0D"/>
<path d="M111.504 36.1488C111.504 36.4078 111.839 36.5114 111.985 36.2977L114.827 32.1502C114.876 32.0785 114.957 32.0356 115.044 32.0356H116.413C116.625 32.0356 116.75 32.273 116.631 32.4479L113.204 37.4603C113.143 37.55 113.143 37.6681 113.204 37.7578L116.481 42.5518C116.6 42.7267 116.475 42.9641 116.263 42.9641H114.785C114.698 42.9641 114.616 42.921 114.567 42.849L111.986 39.0637C111.84 38.8495 111.504 38.9529 111.504 39.2122V42.7005C111.504 42.8461 111.387 42.9641 111.241 42.9641H109.993C109.847 42.9641 109.729 42.8461 109.729 42.7005L109.729 32.2991C109.729 32.1536 109.847 32.0356 109.993 32.0356H111.241C111.387 32.0356 111.505 32.1536 111.505 32.2991L111.504 36.1488Z" fill="#0D0D0D"/>
<path fill-rule="evenodd" clip-rule="evenodd" d="M94.1683 16.4353C95.5249 16.4353 96.5446 16.9135 97.2275 17.8697C97.9103 18.8169 98.2517 20.2375 98.2517 22.1318C98.2517 24.026 97.9103 25.4513 97.2275 26.4076C96.5446 27.3547 95.5249 27.8282 94.1683 27.8282C92.8208 27.8282 91.801 27.3547 91.109 26.4076C90.4262 25.4513 90.0848 24.026 90.0848 22.1318C90.0848 20.2375 90.4262 18.8169 91.109 17.8697C91.801 16.9135 92.8208 16.4353 94.1683 16.4353ZM94.1683 18.1019C93.3853 18.1019 92.8071 18.4298 92.4338 19.0855C92.0605 19.7412 91.8738 20.7566 91.8738 22.1318C91.8738 23.5069 92.0605 24.5223 92.4338 25.1781C92.8071 25.8338 93.3853 26.1616 94.1683 26.1616C94.9513 26.1616 95.5295 25.8337 95.9027 25.1781C96.276 24.5223 96.4627 23.5069 96.4627 22.1318C96.4627 20.7566 96.276 19.7412 95.9027 19.0855C95.5295 18.4298 94.9513 18.102 94.1683 18.1019Z" fill="#0D0D0D"/>
<path d="M122.201 16.4353C122.956 16.4353 123.612 16.5719 124.167 16.8451C124.723 17.1092 125.16 17.4917 125.478 17.9926C125.763 18.4193 125.937 18.9282 126.002 19.5193C126.019 19.6693 125.898 19.7958 125.747 19.7958H124.551C124.43 19.7958 124.326 19.7126 124.289 19.5969C124.145 19.1382 123.913 18.781 123.594 18.5254C123.229 18.234 122.765 18.0883 122.201 18.0883C121.581 18.0883 121.094 18.2385 120.739 18.539C120.384 18.8305 120.207 19.2358 120.207 19.7549C120.207 20.1282 120.33 20.4378 120.575 20.6837C120.821 20.9296 121.172 21.089 121.627 21.1619L122.883 21.3395C123.839 21.4943 124.563 21.8403 125.055 22.3776C125.547 22.9149 125.792 23.6254 125.792 24.5087C125.792 25.1826 125.642 25.77 125.342 26.2709C125.041 26.7627 124.613 27.1452 124.058 27.4184C123.512 27.6916 122.87 27.8282 122.132 27.8282C121.386 27.8282 120.735 27.7052 120.179 27.4594C119.624 27.2135 119.187 26.8629 118.868 26.4076C118.596 26.011 118.427 25.548 118.361 25.0186C118.342 24.8684 118.463 24.7409 118.614 24.7409H119.859C119.976 24.7409 120.078 24.8186 120.12 24.9278C120.263 25.3017 120.488 25.5946 120.794 25.8064C121.149 26.0523 121.595 26.1752 122.132 26.1752C122.724 26.1752 123.188 26.0296 123.525 25.7381C123.871 25.4467 124.044 25.046 124.044 24.5361C124.044 24.1536 123.921 23.8439 123.676 23.6071C123.43 23.3612 123.079 23.2018 122.624 23.129L121.381 22.9514C120.425 22.7874 119.697 22.4414 119.196 21.9132C118.704 21.3759 118.459 20.661 118.459 19.7685C118.459 19.0946 118.613 18.5071 118.923 18.0063C119.232 17.5054 119.665 17.1183 120.22 16.8451C120.785 16.5719 121.445 16.4353 122.201 16.4353Z" fill="#0D0D0D"/>
<path d="M58.9837 26.2937C58.9959 26.3368 59.0352 26.3665 59.0799 26.3665C59.1359 26.3665 59.181 26.3205 59.1798 26.2645L59.1136 22.9104V16.9311C59.1136 16.7855 59.2316 16.6675 59.3771 16.6675H60.448C60.5935 16.6675 60.7115 16.7855 60.7115 16.9311V27.3325C60.7115 27.478 60.5935 27.596 60.448 27.596H57.9607C57.8428 27.596 57.7393 27.5177 57.7072 27.4042L55.037 17.9697C55.0249 17.9266 54.9856 17.8969 54.9409 17.8969C54.8849 17.8969 54.8398 17.9429 54.8409 17.9989L54.9072 21.3531V27.3325C54.9072 27.478 54.7892 27.596 54.6437 27.596H53.5728C53.4273 27.596 53.3093 27.478 53.3093 27.3325V16.9311C53.3093 16.7855 53.4273 16.6675 53.5728 16.6675H56.0601C56.1779 16.6675 56.2815 16.7458 56.3136 16.8593L58.9837 26.2937Z" fill="#0D0D0D"/>
<path d="M69.9737 18.0297C69.9737 18.1752 69.8557 18.2932 69.7102 18.2932L65.3479 18.2932C65.2024 18.2932 65.0844 18.4112 65.0844 18.5567V21.0759C65.0844 21.2215 65.2024 21.3395 65.3479 21.3395L69.0274 21.3395C69.1729 21.3395 69.2909 21.4575 69.2909 21.603V22.6196C69.2909 22.7651 69.1729 22.8831 69.0274 22.8831L65.3479 22.8831C65.2024 22.8831 65.0844 23.0011 65.0844 23.1466V25.7068C65.0844 25.8524 65.2024 25.9703 65.3479 25.9703L69.5736 25.9703C69.7191 25.9703 69.8371 26.0883 69.8371 26.2339V27.3325C69.8371 27.478 69.7191 27.596 69.5736 27.596H63.5589C63.4133 27.596 63.2954 27.478 63.2954 27.3325V16.9311C63.2954 16.7855 63.4133 16.6675 63.5589 16.6675L69.7102 16.6675C69.8557 16.6675 69.9737 16.7855 69.9737 16.9311V18.0297Z" fill="#0D0D0D"/>
<path d="M79.6729 18.0979C79.6729 18.2435 79.5549 18.3614 79.4094 18.3614H76.7406C76.5951 18.3614 76.4771 18.4794 76.4771 18.625V27.3325C76.4771 27.478 76.3592 27.596 76.2136 27.596H74.9652C74.8197 27.596 74.7017 27.478 74.7017 27.3325V18.625C74.7017 18.4794 74.5838 18.3614 74.4383 18.3614H71.7694C71.6239 18.3614 71.506 18.2435 71.506 18.0979V16.9311C71.506 16.7855 71.6239 16.6675 71.7694 16.6675H79.4094C79.5549 16.6675 79.6729 16.7855 79.6729 16.9311V18.0979Z" fill="#0D0D0D"/>
<path d="M82.7348 23.0196L82.9069 26.1184C82.9099 26.1733 82.9553 26.2162 83.0103 26.2162C83.0633 26.2162 83.1077 26.1762 83.1133 26.1235L83.8025 19.5673C83.8166 19.4332 83.9297 19.3313 84.0646 19.3313H85.828C85.9637 19.3313 86.0771 19.4343 86.0903 19.5694L86.7273 26.1228C86.7325 26.1758 86.777 26.2162 86.8302 26.2162C86.8849 26.2162 86.9301 26.1736 86.9334 26.119L87.1188 23.0196L87.8027 16.9018C87.8176 16.7684 87.9303 16.6675 88.0645 16.6675H89.0907C89.248 16.6675 89.3703 16.8045 89.3525 16.9609L88.1696 27.3622C88.1544 27.4954 88.0418 27.596 87.9078 27.596H85.9366C85.8014 27.596 85.6881 27.4935 85.6745 27.3589L84.9971 20.6358C84.9921 20.5854 84.9497 20.5471 84.8991 20.5471C84.8488 20.5471 84.8065 20.585 84.8011 20.635L84.0714 27.3609C84.0568 27.4946 83.9439 27.596 83.8094 27.596H81.8502C81.7162 27.596 81.6035 27.4954 81.5884 27.3622L80.4055 16.9609C80.3877 16.8045 80.51 16.6675 80.6673 16.6675H81.8022C81.9366 16.6675 82.0494 16.7687 82.0641 16.9023L82.7348 23.0196Z" fill="#0D0D0D"/>
<path fill-rule="evenodd" clip-rule="evenodd" d="M103.963 16.6675C104.673 16.6675 105.292 16.7996 105.82 17.0637C106.349 17.3278 106.758 17.7012 107.05 18.1839C107.341 18.6665 107.487 19.2403 107.487 19.9051C107.487 20.5152 107.336 21.0526 107.036 21.5171C106.745 21.9815 106.335 22.3457 105.807 22.6098C105.636 22.6922 105.457 22.7613 105.268 22.817C105.092 22.869 105.002 23.0734 105.097 23.2301L107.515 27.1952C107.622 27.3708 107.496 27.596 107.29 27.596H105.889C105.796 27.596 105.709 27.5465 105.662 27.466L103.11 23.1223C103.063 23.0418 102.976 22.9923 102.883 22.9923H102.151C102.005 22.9923 101.887 23.1103 101.887 23.2559V27.3325C101.887 27.478 101.769 27.596 101.624 27.596H100.362C100.216 27.596 100.098 27.478 100.098 27.3325V16.9311C100.098 16.7855 100.216 16.6675 100.362 16.6675L103.963 16.6675ZM101.887 21.1988C101.887 21.3444 102.005 21.4623 102.151 21.4623L103.963 21.4624C104.491 21.4624 104.91 21.3212 105.22 21.0389C105.538 20.7566 105.698 20.3786 105.698 19.9051C105.698 19.4315 105.538 19.0536 105.22 18.7712C104.91 18.4889 104.491 18.3478 103.963 18.3478L102.151 18.3478C102.005 18.3478 101.887 18.4658 101.887 18.6113V21.1988Z" fill="#0D0D0D"/>
<path d="M111.505 20.7807C111.505 21.0397 111.839 21.1433 111.985 20.9297L114.827 16.7821C114.876 16.7104 114.957 16.6675 115.044 16.6675H116.413C116.625 16.6675 116.75 16.9049 116.631 17.0798L113.204 22.0923C113.143 22.1819 113.143 22.3001 113.204 22.3897L116.481 27.1837C116.6 27.3586 116.475 27.596 116.263 27.596H114.785C114.698 27.596 114.616 27.5529 114.567 27.481L111.986 23.6956C111.84 23.4814 111.505 23.5848 111.505 23.8441V27.3325C111.505 27.478 111.387 27.596 111.241 27.596H109.993C109.847 27.596 109.729 27.478 109.729 27.3325V16.9311C109.729 16.7855 109.847 16.6675 109.993 16.6675H111.241C111.387 16.6675 111.505 16.7855 111.505 16.9311V20.7807Z" fill="#0D0D0D"/>
<path d="M57.352 1.06725C58.0986 1.06726 58.745 1.22668 59.2913 1.54542C59.8375 1.85506 60.2655 2.31495 60.5751 2.92511C60.8507 3.46024 61.0252 4.10005 61.0988 4.84452C61.1137 4.99586 60.9928 5.12439 60.8407 5.12439H59.704C59.5759 5.12439 59.4671 5.03214 59.4407 4.90682C59.2983 4.23069 59.0664 3.71127 58.745 3.34856C58.399 2.93875 57.9347 2.73387 57.352 2.73386C56.5599 2.73386 55.9726 3.06169 55.5902 3.7174C55.2169 4.3731 55.0302 5.38854 55.0302 6.76369C55.0302 8.13883 55.2078 9.15427 55.5629 9.80997C55.9179 10.4657 56.4734 10.7935 57.229 10.7935C57.7753 10.7935 58.2169 10.6068 58.5538 10.2334C58.856 9.89032 59.0739 9.41166 59.2076 8.79742C59.2348 8.67254 59.3434 8.58058 59.4712 8.58058H60.6075C60.7599 8.58058 60.881 8.70968 60.8649 8.86127C60.7905 9.56143 60.6164 10.1691 60.3428 10.6843C60.0424 11.258 59.6281 11.6997 59.1001 12.0094C58.572 12.3099 57.9483 12.4601 57.229 12.4601C55.9089 12.4601 54.9119 11.9866 54.2381 11.0395C53.5735 10.0832 53.2412 8.65794 53.2412 6.76369C53.2412 4.86946 53.5826 3.44878 54.2654 2.50165C54.9574 1.54542 55.9863 1.06725 57.352 1.06725Z" fill="#0D0D0D"/>
<path d="M122.255 1.06726C122.993 1.06726 123.63 1.21749 124.167 1.51801C124.704 1.81855 125.128 2.25115 125.437 2.81578C125.718 3.31323 125.896 3.90261 125.972 4.58386C125.989 4.73552 125.868 4.86488 125.715 4.86488H124.551C124.423 4.86488 124.315 4.77381 124.287 4.6499C124.152 4.06241 123.93 3.60589 123.621 3.28029C123.284 2.91602 122.829 2.73387 122.255 2.73386C121.463 2.73386 120.876 3.06169 120.493 3.7174C120.111 4.3731 119.92 5.38855 119.92 6.76369C119.92 8.18438 120.106 9.23173 120.48 9.90565C120.862 10.5705 121.454 10.9028 122.255 10.9028C122.629 10.9028 122.961 10.789 123.252 10.5613C123.553 10.3245 123.789 10.0103 123.962 9.61873C124.111 9.29961 124.199 8.95023 124.226 8.57063C124.237 8.42547 124.118 8.30731 123.972 8.30731H122.273C122.127 8.30731 122.009 8.18932 122.009 8.04378V6.9453C122.009 6.79976 122.127 6.68177 122.273 6.68177H125.502C125.647 6.68177 125.765 6.79976 125.765 6.9453V11.9644C125.765 12.1099 125.647 12.2279 125.502 12.2279H124.499C124.353 12.2279 124.235 12.1099 124.235 11.9644V11.6171C124.235 11.4716 124.118 11.3536 123.972 11.3536H123.967C123.864 11.3536 123.773 11.4146 123.72 11.5032C123.562 11.7697 123.328 11.9839 123.02 12.1459C122.656 12.3371 122.223 12.4328 121.723 12.4328C120.594 12.4328 119.71 11.9546 119.073 10.9984C118.445 10.0331 118.131 8.6215 118.131 6.76369C118.131 4.86947 118.477 3.44878 119.169 2.50166C119.861 1.54542 120.89 1.06726 122.255 1.06726Z" fill="#0D0D0D"/>
<path fill-rule="evenodd" clip-rule="evenodd" d="M70.3844 11.9011C70.4255 12.0672 70.2998 12.2279 70.1286 12.2279H68.8297C68.7077 12.2279 68.6016 12.1441 68.5734 12.0253L67.8261 8.87877C67.7979 8.76 67.6918 8.67615 67.5698 8.67615H64.9164C64.7946 8.67615 64.6887 8.75964 64.6603 8.87809L63.9038 12.026C63.8753 12.1444 63.7694 12.2279 63.6476 12.2279H62.4711C62.2999 12.2279 62.1742 12.0672 62.2153 11.9011L64.789 1.49968C64.8181 1.38207 64.9236 1.29946 65.0447 1.29946L67.555 1.29946C67.6761 1.29946 67.7816 1.38207 67.8107 1.49968L70.3844 11.9011ZM65.1908 6.67076C65.151 6.8365 65.2765 6.99589 65.447 6.99589H67.0456C67.2157 6.99589 67.3413 6.83701 67.3019 6.67145L66.3613 2.71104C66.3493 2.66033 66.304 2.62453 66.2519 2.62453C66.1999 2.62453 66.1547 2.66018 66.1425 2.71075L65.1908 6.67076Z" fill="#0D0D0D"/>
<path d="M75.532 7.30487C75.5415 7.35542 75.5857 7.39204 75.6371 7.39204C75.6886 7.39204 75.7328 7.3553 75.7422 7.30464L76.8195 1.51478C76.8427 1.38997 76.9516 1.29946 77.0785 1.29946L79.1773 1.29946C79.3228 1.29946 79.4407 1.41745 79.4407 1.56299V11.9644C79.4407 12.1099 79.3228 12.2279 79.1773 12.2279H78.1063C77.9608 12.2279 77.8428 12.1099 77.8428 11.9644V6.44946L77.9358 2.78467C77.9372 2.72683 77.8908 2.67914 77.8329 2.67914C77.7833 2.67914 77.7407 2.71458 77.7317 2.76341L76.6944 8.39213C76.6714 8.51714 76.5624 8.60789 76.4353 8.60789L74.7567 8.60788C74.6298 8.60788 74.521 8.51745 74.4977 8.3927L73.4473 2.76327C73.4382 2.7145 73.3956 2.67914 73.346 2.67914C73.2881 2.67914 73.2416 2.72688 73.2431 2.78478L73.3359 6.44946V11.9644C73.3359 12.1099 73.218 12.2279 73.0725 12.2279H72.0016C71.8561 12.2279 71.7381 12.1099 71.7381 11.9644V1.56299C71.7381 1.41745 71.8561 1.29946 72.0016 1.29946L74.1828 1.29946C74.3095 1.29946 74.4182 1.38967 74.4417 1.51422L75.532 7.30487Z" fill="#0D0D0D"/>
<path fill-rule="evenodd" clip-rule="evenodd" d="M85.0837 1.29946C86.1945 1.29946 87.064 1.56355 87.6923 2.09175C88.3296 2.61996 88.6483 3.34402 88.6483 4.26383C88.6482 4.78291 88.5117 5.23372 88.2386 5.61621C87.985 5.97127 87.6412 6.23214 87.2072 6.39885C87.1466 6.42215 87.105 6.47951 87.105 6.54447C87.105 6.61003 87.1473 6.66779 87.2088 6.69047C87.714 6.87673 88.1073 7.17889 88.3888 7.59694C88.6984 8.04318 88.8531 8.57146 88.8531 9.18162C88.8531 10.1287 88.5162 10.8755 87.8425 11.4219C87.1779 11.9592 86.2628 12.2279 85.0974 12.2279H81.892C81.7465 12.2279 81.6285 12.1099 81.6285 11.9644V1.56299C81.6285 1.41745 81.7465 1.29946 81.892 1.29946L85.0837 1.29946ZM83.4176 10.2978C83.4176 10.4433 83.5355 10.5613 83.681 10.5613H85.0837C85.7302 10.5613 86.2218 10.4293 86.5587 10.1652C86.8956 9.89196 87.0641 9.514 87.0641 9.03134C87.0641 8.53956 86.8956 8.16161 86.5587 7.89751C86.2218 7.6243 85.7302 7.48771 85.0837 7.48771H83.681C83.5355 7.48771 83.4176 7.6057 83.4176 7.75124V10.2978ZM83.4176 5.6668C83.4176 5.81234 83.5355 5.93033 83.681 5.93033H85.0701C85.6801 5.93033 86.1445 5.80284 86.4632 5.54784C86.7909 5.29285 86.9548 4.9286 86.9548 4.45508C86.9548 3.97243 86.7909 3.60355 86.4632 3.34856C86.1445 3.09356 85.6801 2.96607 85.0701 2.96607H83.681C83.5355 2.96607 83.4176 3.08405 83.4176 3.2296V5.6668Z" fill="#0D0D0D"/>
<path fill-rule="evenodd" clip-rule="evenodd" d="M94.6737 1.29946C95.3838 1.29946 96.003 1.43151 96.531 1.69561C97.0591 1.95971 97.4689 2.33311 97.7602 2.81578C98.0516 3.29844 98.1972 3.8722 98.1972 4.537C98.1972 5.14717 98.047 5.68453 97.7466 6.14899C97.4552 6.61344 97.0455 6.97765 96.5174 7.24175C96.3468 7.32414 96.1671 7.39319 95.9784 7.44894C95.8023 7.50095 95.7121 7.7053 95.8077 7.86206L98.2259 11.8271C98.333 12.0028 98.2066 12.2279 98.001 12.2279H96.5999C96.5065 12.2279 96.4201 12.1785 96.3728 12.0979L93.8204 7.75424C93.7731 7.6737 93.6867 7.62424 93.5933 7.62424H92.8612C92.7157 7.62424 92.5978 7.74223 92.5978 7.88777V11.9644C92.5978 12.1099 92.4798 12.2279 92.3343 12.2279H91.0722C90.9267 12.2279 90.8087 12.1099 90.8087 11.9644V1.56299C90.8087 1.41745 90.9267 1.29946 91.0722 1.29946L94.6737 1.29946ZM92.5978 5.83074C92.5978 5.97628 92.7157 6.09427 92.8612 6.09427H94.6737C95.2017 6.09427 95.6206 5.95314 95.9301 5.67082C96.2488 5.3885 96.4082 5.01056 96.4082 4.537C96.4082 4.06343 96.2488 3.68549 95.9301 3.40317C95.6206 3.12086 95.2017 2.97972 94.6737 2.97972H92.8612C92.7157 2.97972 92.5978 3.09771 92.5978 3.24325V5.83074Z" fill="#0D0D0D"/>
<path d="M107.063 2.72984C107.063 2.87539 106.945 2.99337 106.8 2.99337L104.609 2.99337C104.463 2.99337 104.345 3.11136 104.345 3.2569V10.2705C104.345 10.416 104.463 10.534 104.609 10.534H106.8C106.945 10.534 107.063 10.652 107.063 10.7975V11.9644C107.063 12.1099 106.945 12.2279 106.8 12.2279H100.116C99.9702 12.2279 99.8523 12.1099 99.8523 11.9644V10.7975C99.8523 10.652 99.9702 10.534 100.116 10.534H102.307C102.452 10.534 102.57 10.416 102.57 10.2705V3.2569C102.57 3.11136 102.452 2.99337 102.307 2.99337L100.116 2.99337C99.9702 2.99337 99.8523 2.87539 99.8523 2.72984V1.56299C99.8523 1.41745 99.9702 1.29946 100.116 1.29946L106.8 1.29946C106.945 1.29946 107.063 1.41745 107.063 1.56299V2.72984Z" fill="#0D0D0D"/>
<path fill-rule="evenodd" clip-rule="evenodd" d="M112.31 1.29946C113.804 1.29947 114.928 1.75934 115.684 2.67915C116.448 3.59895 116.831 4.96051 116.831 6.76369C116.831 8.56684 116.448 9.92832 115.684 10.8481C114.928 11.7679 113.804 12.2279 112.31 12.2279L109.405 12.2279C109.26 12.2279 109.142 12.1099 109.142 11.9644V1.56299C109.142 1.41745 109.26 1.29946 109.405 1.29946L112.31 1.29946ZM110.931 10.2841C110.931 10.4297 111.049 10.5477 111.194 10.5477L112.31 10.5477C113.23 10.5476 113.913 10.238 114.359 9.61873C114.814 8.99035 115.042 8.03865 115.042 6.76369C115.042 5.47963 114.814 4.52792 114.359 3.90865C113.913 3.28938 113.23 2.97973 112.31 2.97972H111.194C111.049 2.97972 110.931 3.09771 110.931 3.24325V10.2841Z" fill="#0D0D0D"/>
<path d="M135 2.66158C135 2.80712 134.882 2.92511 134.737 2.92511L130.374 2.92511C130.229 2.92511 130.111 3.0431 130.111 3.18864V5.70787C130.111 5.85341 130.229 5.9714 130.374 5.9714H134.054C134.199 5.9714 134.317 6.08938 134.317 6.23493V7.25149C134.317 7.39703 134.199 7.51502 134.054 7.51502L130.374 7.51502C130.229 7.51502 130.111 7.63301 130.111 7.77855V10.3387C130.111 10.4843 130.229 10.6023 130.374 10.6023L134.6 10.6023C134.746 10.6023 134.863 10.7203 134.863 10.8658V11.9644C134.863 12.1099 134.746 12.2279 134.6 12.2279L128.585 12.2279C128.44 12.2279 128.322 12.1099 128.322 11.9644V1.56299C128.322 1.41745 128.44 1.29946 128.585 1.29946L134.737 1.29946C134.882 1.29946 135 1.41745 135 1.56299V2.66158Z" fill="#0D0D0D"/>
</svg>
