<svg width="323" height="400" viewBox="0 0 323 400" fill="none" xmlns="http://www.w3.org/2000/svg">
<path d="M241.892 59.0537C241.892 69.7704 250.561 78.4579 261.255 78.4579H302.886C313.581 78.4579 322.25 87.1455 322.25 97.8618V140.39C322.25 151.106 313.581 159.795 302.886 159.795H260.447C249.754 159.795 241.084 151.106 241.084 140.39V100.74C241.084 90.0238 232.415 81.3363 221.721 81.3363H100.529C89.8343 81.3363 81.1652 90.0238 81.1652 100.74V299.26C81.1652 309.976 89.8343 318.664 100.529 318.664H221.721C232.415 318.664 241.084 309.976 241.084 299.26V257.055C241.084 246.339 249.754 237.652 260.447 237.652H302.886C313.581 237.652 322.25 246.339 322.25 257.055V299.584C322.25 310.3 313.581 318.987 302.886 318.987H261.253C250.559 318.987 241.89 327.675 241.89 338.392V380.595C241.89 391.313 233.221 400 222.527 400H99.7194C89.025 400 80.3558 391.313 80.3558 380.595V338.392C80.3558 327.675 71.6866 318.987 60.9925 318.987H19.3633C8.66924 318.987 -4.67452e-07 310.3 0 299.584L8.79898e-06 97.8618C9.26644e-06 87.1455 8.66925 78.4579 19.3633 78.4579H60.9944C71.6885 78.4579 80.3577 69.7704 80.3577 59.0537L80.3577 19.4042C80.3577 8.68753 89.0269 -4.68438e-07 99.7213 0L222.529 5.37941e-06C233.223 5.84785e-06 241.892 8.68754 241.892 19.4042V59.0537Z" fill="white"/>
</svg>
