<svg width="322" height="400" viewBox="0 0 322 400" fill="none" xmlns="http://www.w3.org/2000/svg">
<path d="M241.704 59.0537C241.704 69.7704 250.367 78.4579 261.052 78.4579H302.651C313.337 78.4579 322 87.1455 322 97.8618V140.39C322 151.106 313.337 159.795 302.651 159.795H260.245C249.56 159.795 240.897 151.106 240.897 140.39V100.74C240.897 90.0238 232.235 81.3363 221.549 81.3363H100.451C89.7646 81.3363 81.1022 90.0238 81.1022 100.74V299.26C81.1022 309.976 89.7646 318.664 100.451 318.664H221.549C232.235 318.664 240.897 309.976 240.897 299.26V257.055C240.897 246.339 249.56 237.652 260.245 237.652H302.651C313.337 237.652 322 246.339 322 257.055V299.584C322 310.3 313.337 318.987 302.651 318.987H261.051C250.365 318.987 241.702 327.675 241.702 338.392V380.595C241.702 391.313 233.04 400 222.354 400H99.6421C88.9559 400 80.2935 391.313 80.2935 380.595V338.392C80.2935 327.675 71.631 318.987 60.9452 318.987H19.3483C8.66252 318.987 -4.6709e-07 310.3 0 299.584L8.79215e-06 97.8618C9.25925e-06 87.1455 8.66253 78.4579 19.3483 78.4579H60.9471C71.6329 78.4579 80.2953 69.7704 80.2953 59.0537L80.2954 19.4042C80.2954 8.68753 88.9579 -4.68438e-07 99.6439 0L222.356 5.37941e-06C233.042 5.84785e-06 241.704 8.68754 241.704 19.4042V59.0537Z" fill="#AE4236"/>
</svg>
